<svg xmlns="http://www.w3.org/2000/svg" width="400" height="400" viewBox="0 0 400 400">
  <path d="M 200 200 L 200.000 390.000 A 190 190 0 0 1 204.311 389.951 Z" fill="#ff0000"/>
  <path d="M 200 200 L 203.316 389.971 A 190 190 0 0 1 207.625 389.847 Z" fill="#ff0400"/>
  <path d="M 200 200 L 206.631 389.884 A 190 190 0 0 1 210.937 389.685 Z" fill="#ff0800"/>
  <path d="M 200 200 L 209.944 389.740 A 190 190 0 0 1 214.246 389.465 Z" fill="#ff0c00"/>
  <path d="M 200 200 L 213.254 389.537 A 190 190 0 0 1 217.550 389.188 Z" fill="#ff1000"/>
  <path d="M 200 200 L 216.560 389.277 A 190 190 0 0 1 220.850 388.853 Z" fill="#ff1500"/>
  <path d="M 200 200 L 219.860 388.959 A 190 190 0 0 1 224.142 388.460 Z" fill="#ff1900"/>
  <path d="M 200 200 L 223.155 388.584 A 190 190 0 0 1 227.428 388.010 Z" fill="#ff1d00"/>
  <path d="M 200 200 L 226.443 388.151 A 190 190 0 0 1 230.705 387.503 Z" fill="#ff2200"/>
  <path d="M 200 200 L 229.723 387.661 A 190 190 0 0 1 233.972 386.938 Z" fill="#ff2600"/>
  <path d="M 200 200 L 232.993 387.113 A 190 190 0 0 1 237.230 386.317 Z" fill="#ff2a00"/>
  <path d="M 200 200 L 236.254 386.509 A 190 190 0 0 1 240.476 385.639 Z" fill="#ff2e00"/>
  <path d="M 200 200 L 239.503 385.848 A 190 190 0 0 1 243.709 384.904 Z" fill="#ff3300"/>
  <path d="M 200 200 L 242.741 385.130 A 190 190 0 0 1 246.930 384.113 Z" fill="#ff3700"/>
  <path d="M 200 200 L 245.965 384.356 A 190 190 0 0 1 250.136 383.266 Z" fill="#ff3b00"/>
  <path d="M 200 200 L 249.176 383.526 A 190 190 0 0 1 253.327 382.363 Z" fill="#ff3f00"/>
  <path d="M 200 200 L 252.371 382.640 A 190 190 0 0 1 256.501 381.405 Z" fill="#ff4300"/>
  <path d="M 200 200 L 255.551 381.698 A 190 190 0 0 1 259.659 380.391 Z" fill="#ff4800"/>
  <path d="M 200 200 L 258.713 380.701 A 190 190 0 0 1 262.798 379.322 Z" fill="#ff4c00"/>
  <path d="M 200 200 L 261.858 379.649 A 190 190 0 0 1 265.918 378.199 Z" fill="#ff5000"/>
  <path d="M 200 200 L 264.984 378.542 A 190 190 0 0 1 269.018 377.021 Z" fill="#ff5400"/>
  <path d="M 200 200 L 268.090 377.380 A 190 190 0 0 1 272.097 375.790 Z" fill="#ff5900"/>
  <path d="M 200 200 L 271.175 376.165 A 190 190 0 0 1 275.154 374.505 Z" fill="#ff5d00"/>
  <path d="M 200 200 L 274.239 374.896 A 190 190 0 0 1 278.188 373.167 Z" fill="#ff6100"/>
  <path d="M 200 200 L 277.280 373.574 A 190 190 0 0 1 281.198 371.776 Z" fill="#ff6600"/>
  <path d="M 200 200 L 280.297 372.198 A 190 190 0 0 1 284.184 370.332 Z" fill="#ff6a00"/>
  <path d="M 200 200 L 283.291 370.771 A 190 190 0 0 1 287.143 368.837 Z" fill="#ff6e00"/>
  <path d="M 200 200 L 286.258 369.291 A 190 190 0 0 1 290.077 367.291 Z" fill="#ff7200"/>
  <path d="M 200 200 L 289.200 367.760 A 190 190 0 0 1 292.983 365.693 Z" fill="#ff7700"/>
  <path d="M 200 200 L 292.114 366.178 A 190 190 0 0 1 295.860 364.045 Z" fill="#ff7b00"/>
  <path d="M 200 200 L 295.000 364.545 A 190 190 0 0 1 298.709 362.347 Z" fill="#ff7f00"/>
  <path d="M 200 200 L 297.857 362.862 A 190 190 0 0 1 301.527 360.600 Z" fill="#ff8300"/>
  <path d="M 200 200 L 300.685 361.129 A 190 190 0 0 1 304.314 358.803 Z" fill="#ff8700"/>
  <path d="M 200 200 L 303.481 359.347 A 190 190 0 0 1 307.070 356.959 Z" fill="#ff8c00"/>
  <path d="M 200 200 L 306.247 357.517 A 190 190 0 0 1 309.793 355.066 Z" fill="#ff9000"/>
  <path d="M 200 200 L 308.980 355.639 A 190 190 0 0 1 312.483 353.126 Z" fill="#ff9400"/>
  <path d="M 200 200 L 311.679 353.713 A 190 190 0 0 1 315.138 351.140 Z" fill="#ff9800"/>
  <path d="M 200 200 L 314.345 351.741 A 190 190 0 0 1 317.758 349.108 Z" fill="#ff9d00"/>
  <path d="M 200 200 L 316.976 349.722 A 190 190 0 0 1 320.342 347.030 Z" fill="#ffa100"/>
  <path d="M 200 200 L 319.571 347.658 A 190 190 0 0 1 322.890 344.907 Z" fill="#ffa500"/>
  <path d="M 200 200 L 322.130 345.548 A 190 190 0 0 1 325.400 342.740 Z" fill="#ffaa00"/>
  <path d="M 200 200 L 324.651 343.395 A 190 190 0 0 1 327.872 340.530 Z" fill="#ffae00"/>
  <path d="M 200 200 L 327.135 341.198 A 190 190 0 0 1 330.305 338.277 Z" fill="#ffb200"/>
  <path d="M 200 200 L 329.580 338.957 A 190 190 0 0 1 332.699 335.982 Z" fill="#ffb600"/>
  <path d="M 200 200 L 331.985 336.675 A 190 190 0 0 1 335.052 333.645 Z" fill="#ffbb00"/>
  <path d="M 200 200 L 334.350 334.350 A 190 190 0 0 1 337.364 331.268 Z" fill="#ffbf00"/>
  <path d="M 200 200 L 336.675 331.985 A 190 190 0 0 1 339.634 328.850 Z" fill="#ffc300"/>
  <path d="M 200 200 L 338.957 329.580 A 190 190 0 0 1 341.861 326.394 Z" fill="#ffc700"/>
  <path d="M 200 200 L 341.198 327.135 A 190 190 0 0 1 344.046 323.899 Z" fill="#ffcb00"/>
  <path d="M 200 200 L 343.395 324.651 A 190 190 0 0 1 346.186 321.366 Z" fill="#ffd000"/>
  <path d="M 200 200 L 345.548 322.130 A 190 190 0 0 1 348.282 318.796 Z" fill="#ffd400"/>
  <path d="M 200 200 L 347.658 319.571 A 190 190 0 0 1 350.332 316.190 Z" fill="#ffd800"/>
  <path d="M 200 200 L 349.722 316.976 A 190 190 0 0 1 352.337 313.549 Z" fill="#ffdc00"/>
  <path d="M 200 200 L 351.741 314.345 A 190 190 0 0 1 354.296 310.873 Z" fill="#ffe100"/>
  <path d="M 200 200 L 353.713 311.679 A 190 190 0 0 1 356.207 308.163 Z" fill="#ffe500"/>
  <path d="M 200 200 L 355.639 308.980 A 190 190 0 0 1 358.071 305.420 Z" fill="#ffe900"/>
  <path d="M 200 200 L 357.517 306.247 A 190 190 0 0 1 359.887 302.646 Z" fill="#ffee00"/>
  <path d="M 200 200 L 359.347 303.481 A 190 190 0 0 1 361.654 299.840 Z" fill="#fff200"/>
  <path d="M 200 200 L 361.129 300.685 A 190 190 0 0 1 363.372 297.003 Z" fill="#fff600"/>
  <path d="M 200 200 L 362.862 297.857 A 190 190 0 0 1 365.040 294.137 Z" fill="#fffa00"/>
  <path d="M 200 200 L 364.545 295.000 A 190 190 0 0 1 366.658 291.242 Z" fill="#ffff00"/>
  <path d="M 200 200 L 366.178 292.114 A 190 190 0 0 1 368.225 288.320 Z" fill="#faff00"/>
  <path d="M 200 200 L 367.760 289.200 A 190 190 0 0 1 369.741 285.371 Z" fill="#f6ff00"/>
  <path d="M 200 200 L 369.291 286.258 A 190 190 0 0 1 371.205 282.395 Z" fill="#f2ff00"/>
  <path d="M 200 200 L 370.771 283.291 A 190 190 0 0 1 372.617 279.395 Z" fill="#eeff00"/>
  <path d="M 200 200 L 372.198 280.297 A 190 190 0 0 1 373.976 276.370 Z" fill="#e9ff00"/>
  <path d="M 200 200 L 373.574 277.280 A 190 190 0 0 1 375.282 273.322 Z" fill="#e5ff00"/>
  <path d="M 200 200 L 374.896 274.239 A 190 190 0 0 1 376.535 270.252 Z" fill="#e1ff00"/>
  <path d="M 200 200 L 376.165 271.175 A 190 190 0 0 1 377.734 267.160 Z" fill="#ddff00"/>
  <path d="M 200 200 L 377.380 268.090 A 190 190 0 0 1 378.879 264.048 Z" fill="#d8ff00"/>
  <path d="M 200 200 L 378.542 264.984 A 190 190 0 0 1 379.970 260.916 Z" fill="#d4ff00"/>
  <path d="M 200 200 L 379.649 261.858 A 190 190 0 0 1 381.006 257.766 Z" fill="#d0ff00"/>
  <path d="M 200 200 L 380.701 258.713 A 190 190 0 0 1 381.986 254.598 Z" fill="#cbff00"/>
  <path d="M 200 200 L 381.698 255.551 A 190 190 0 0 1 382.911 251.414 Z" fill="#c7ff00"/>
  <path d="M 200 200 L 382.640 252.371 A 190 190 0 0 1 383.781 248.214 Z" fill="#c3ff00"/>
  <path d="M 200 200 L 383.526 249.176 A 190 190 0 0 1 384.594 244.999 Z" fill="#bfff00"/>
  <path d="M 200 200 L 384.356 245.965 A 190 190 0 0 1 385.352 241.771 Z" fill="#bbff00"/>
  <path d="M 200 200 L 385.130 242.741 A 190 190 0 0 1 386.052 238.530 Z" fill="#b6ff00"/>
  <path d="M 200 200 L 385.848 239.503 A 190 190 0 0 1 386.696 235.277 Z" fill="#b2ff00"/>
  <path d="M 200 200 L 386.509 236.254 A 190 190 0 0 1 387.284 232.013 Z" fill="#aeff00"/>
  <path d="M 200 200 L 387.113 232.993 A 190 190 0 0 1 387.814 228.740 Z" fill="#aaff00"/>
  <path d="M 200 200 L 387.661 229.723 A 190 190 0 0 1 388.287 225.457 Z" fill="#a5ff00"/>
  <path d="M 200 200 L 388.151 226.443 A 190 190 0 0 1 388.702 222.167 Z" fill="#a1ff00"/>
  <path d="M 200 200 L 388.584 223.155 A 190 190 0 0 1 389.061 218.871 Z" fill="#9dff00"/>
  <path d="M 200 200 L 388.959 219.860 A 190 190 0 0 1 389.361 215.568 Z" fill="#99ff00"/>
  <path d="M 200 200 L 389.277 216.560 A 190 190 0 0 1 389.604 212.261 Z" fill="#94ff00"/>
  <path d="M 200 200 L 389.537 213.254 A 190 190 0 0 1 389.789 208.950 Z" fill="#90ff00"/>
  <path d="M 200 200 L 389.740 209.944 A 190 190 0 0 1 389.916 205.637 Z" fill="#8cff00"/>
  <path d="M 200 200 L 389.884 206.631 A 190 190 0 0 1 389.986 202.321 Z" fill="#88ff00"/>
  <path d="M 200 200 L 389.971 203.316 A 190 190 0 0 1 389.997 199.005 Z" fill="#83ff00"/>
  <path d="M 200 200 L 390.000 200.000 A 190 190 0 0 1 389.951 195.689 Z" fill="#7fff00"/>
  <path d="M 200 200 L 389.971 196.684 A 190 190 0 0 1 389.847 192.375 Z" fill="#7bff00"/>
  <path d="M 200 200 L 389.884 193.369 A 190 190 0 0 1 389.685 189.063 Z" fill="#77ff00"/>
  <path d="M 200 200 L 389.740 190.056 A 190 190 0 0 1 389.465 185.754 Z" fill="#72ff00"/>
  <path d="M 200 200 L 389.537 186.746 A 190 190 0 0 1 389.188 182.450 Z" fill="#6eff00"/>
  <path d="M 200 200 L 389.277 183.440 A 190 190 0 0 1 388.853 179.150 Z" fill="#6aff00"/>
  <path d="M 200 200 L 388.959 180.140 A 190 190 0 0 1 388.460 175.858 Z" fill="#65ff00"/>
  <path d="M 200 200 L 388.584 176.845 A 190 190 0 0 1 388.010 172.572 Z" fill="#61ff00"/>
  <path d="M 200 200 L 388.151 173.557 A 190 190 0 0 1 387.503 169.295 Z" fill="#5dff00"/>
  <path d="M 200 200 L 387.661 170.277 A 190 190 0 0 1 386.938 166.028 Z" fill="#59ff00"/>
  <path d="M 200 200 L 387.113 167.007 A 190 190 0 0 1 386.317 162.770 Z" fill="#54ff00"/>
  <path d="M 200 200 L 386.509 163.746 A 190 190 0 0 1 385.639 159.524 Z" fill="#50ff00"/>
  <path d="M 200 200 L 385.848 160.497 A 190 190 0 0 1 384.904 156.291 Z" fill="#4cff00"/>
  <path d="M 200 200 L 385.130 157.259 A 190 190 0 0 1 384.113 153.070 Z" fill="#48ff00"/>
  <path d="M 200 200 L 384.356 154.035 A 190 190 0 0 1 383.266 149.864 Z" fill="#44ff00"/>
  <path d="M 200 200 L 383.526 150.824 A 190 190 0 0 1 382.363 146.673 Z" fill="#3fff00"/>
  <path d="M 200 200 L 382.640 147.629 A 190 190 0 0 1 381.405 143.499 Z" fill="#3bff00"/>
  <path d="M 200 200 L 381.698 144.449 A 190 190 0 0 1 380.391 140.341 Z" fill="#37ff00"/>
  <path d="M 200 200 L 380.701 141.287 A 190 190 0 0 1 379.322 137.202 Z" fill="#33ff00"/>
  <path d="M 200 200 L 379.649 138.142 A 190 190 0 0 1 378.199 134.082 Z" fill="#2eff00"/>
  <path d="M 200 200 L 378.542 135.016 A 190 190 0 0 1 377.021 130.982 Z" fill="#2aff00"/>
  <path d="M 200 200 L 377.380 131.910 A 190 190 0 0 1 375.790 127.903 Z" fill="#26ff00"/>
  <path d="M 200 200 L 376.165 128.825 A 190 190 0 0 1 374.505 124.846 Z" fill="#21ff00"/>
  <path d="M 200 200 L 374.896 125.761 A 190 190 0 0 1 373.167 121.812 Z" fill="#1dff00"/>
  <path d="M 200 200 L 373.574 122.720 A 190 190 0 0 1 371.776 118.802 Z" fill="#19ff00"/>
  <path d="M 200 200 L 372.198 119.703 A 190 190 0 0 1 370.332 115.816 Z" fill="#15ff00"/>
  <path d="M 200 200 L 370.771 116.709 A 190 190 0 0 1 368.837 112.857 Z" fill="#10ff00"/>
  <path d="M 200 200 L 369.291 113.742 A 190 190 0 0 1 367.291 109.923 Z" fill="#0cff00"/>
  <path d="M 200 200 L 367.760 110.800 A 190 190 0 0 1 365.693 107.017 Z" fill="#08ff00"/>
  <path d="M 200 200 L 366.178 107.886 A 190 190 0 0 1 364.045 104.140 Z" fill="#04ff00"/>
  <path d="M 200 200 L 364.545 105.000 A 190 190 0 0 1 362.347 101.291 Z" fill="#00ff00"/>
  <path d="M 200 200 L 362.862 102.143 A 190 190 0 0 1 360.600 98.473 Z" fill="#00ff04"/>
  <path d="M 200 200 L 361.129 99.315 A 190 190 0 0 1 358.803 95.686 Z" fill="#00ff08"/>
  <path d="M 200 200 L 359.347 96.519 A 190 190 0 0 1 356.959 92.930 Z" fill="#00ff0c"/>
  <path d="M 200 200 L 357.517 93.753 A 190 190 0 0 1 355.066 90.207 Z" fill="#00ff10"/>
  <path d="M 200 200 L 355.639 91.020 A 190 190 0 0 1 353.126 87.517 Z" fill="#00ff15"/>
  <path d="M 200 200 L 353.713 88.321 A 190 190 0 0 1 351.140 84.862 Z" fill="#00ff19"/>
  <path d="M 200 200 L 351.741 85.655 A 190 190 0 0 1 349.108 82.242 Z" fill="#00ff1d"/>
  <path d="M 200 200 L 349.722 83.024 A 190 190 0 0 1 347.030 79.658 Z" fill="#00ff21"/>
  <path d="M 200 200 L 347.658 80.429 A 190 190 0 0 1 344.907 77.110 Z" fill="#00ff26"/>
  <path d="M 200 200 L 345.548 77.870 A 190 190 0 0 1 342.740 74.600 Z" fill="#00ff2a"/>
  <path d="M 200 200 L 343.395 75.349 A 190 190 0 0 1 340.530 72.128 Z" fill="#00ff2e"/>
  <path d="M 200 200 L 341.198 72.865 A 190 190 0 0 1 338.277 69.695 Z" fill="#00ff32"/>
  <path d="M 200 200 L 338.957 70.420 A 190 190 0 0 1 335.982 67.301 Z" fill="#00ff37"/>
  <path d="M 200 200 L 336.675 68.015 A 190 190 0 0 1 333.645 64.948 Z" fill="#00ff3b"/>
  <path d="M 200 200 L 334.350 65.650 A 190 190 0 0 1 331.268 62.636 Z" fill="#00ff3f"/>
  <path d="M 200 200 L 331.985 63.325 A 190 190 0 0 1 328.850 60.366 Z" fill="#00ff43"/>
  <path d="M 200 200 L 329.580 61.043 A 190 190 0 0 1 326.394 58.139 Z" fill="#00ff48"/>
  <path d="M 200 200 L 327.135 58.802 A 190 190 0 0 1 323.899 55.954 Z" fill="#00ff4c"/>
  <path d="M 200 200 L 324.651 56.605 A 190 190 0 0 1 321.366 53.814 Z" fill="#00ff50"/>
  <path d="M 200 200 L 322.130 54.452 A 190 190 0 0 1 318.796 51.718 Z" fill="#00ff55"/>
  <path d="M 200 200 L 319.571 52.342 A 190 190 0 0 1 316.190 49.668 Z" fill="#00ff59"/>
  <path d="M 200 200 L 316.976 50.278 A 190 190 0 0 1 313.549 47.663 Z" fill="#00ff5d"/>
  <path d="M 200 200 L 314.345 48.259 A 190 190 0 0 1 310.873 45.704 Z" fill="#00ff61"/>
  <path d="M 200 200 L 311.679 46.287 A 190 190 0 0 1 308.163 43.793 Z" fill="#00ff66"/>
  <path d="M 200 200 L 308.980 44.361 A 190 190 0 0 1 305.420 41.929 Z" fill="#00ff6a"/>
  <path d="M 200 200 L 306.247 42.483 A 190 190 0 0 1 302.646 40.113 Z" fill="#00ff6e"/>
  <path d="M 200 200 L 303.481 40.653 A 190 190 0 0 1 299.840 38.346 Z" fill="#00ff72"/>
  <path d="M 200 200 L 300.685 38.871 A 190 190 0 0 1 297.003 36.628 Z" fill="#00ff77"/>
  <path d="M 200 200 L 297.857 37.138 A 190 190 0 0 1 294.137 34.960 Z" fill="#00ff7b"/>
  <path d="M 200 200 L 295.000 35.455 A 190 190 0 0 1 291.242 33.342 Z" fill="#00ff7f"/>
  <path d="M 200 200 L 292.114 33.822 A 190 190 0 0 1 288.320 31.775 Z" fill="#00ff83"/>
  <path d="M 200 200 L 289.200 32.240 A 190 190 0 0 1 285.371 30.259 Z" fill="#00ff87"/>
  <path d="M 200 200 L 286.258 30.709 A 190 190 0 0 1 282.395 28.795 Z" fill="#00ff8c"/>
  <path d="M 200 200 L 283.291 29.229 A 190 190 0 0 1 279.395 27.383 Z" fill="#00ff90"/>
  <path d="M 200 200 L 280.297 27.802 A 190 190 0 0 1 276.370 26.024 Z" fill="#00ff94"/>
  <path d="M 200 200 L 277.280 26.426 A 190 190 0 0 1 273.322 24.718 Z" fill="#00ff98"/>
  <path d="M 200 200 L 274.239 25.104 A 190 190 0 0 1 270.252 23.465 Z" fill="#00ff9d"/>
  <path d="M 200 200 L 271.175 23.835 A 190 190 0 0 1 267.160 22.266 Z" fill="#00ffa1"/>
  <path d="M 200 200 L 268.090 22.620 A 190 190 0 0 1 264.048 21.121 Z" fill="#00ffa5"/>
  <path d="M 200 200 L 264.984 21.458 A 190 190 0 0 1 260.916 20.030 Z" fill="#00ffa9"/>
  <path d="M 200 200 L 261.858 20.351 A 190 190 0 0 1 257.766 18.994 Z" fill="#00ffae"/>
  <path d="M 200 200 L 258.713 19.299 A 190 190 0 0 1 254.598 18.014 Z" fill="#00ffb2"/>
  <path d="M 200 200 L 255.551 18.302 A 190 190 0 0 1 251.414 17.089 Z" fill="#00ffb6"/>
  <path d="M 200 200 L 252.371 17.360 A 190 190 0 0 1 248.214 16.219 Z" fill="#00ffbb"/>
  <path d="M 200 200 L 249.176 16.474 A 190 190 0 0 1 244.999 15.406 Z" fill="#00ffbf"/>
  <path d="M 200 200 L 245.965 15.644 A 190 190 0 0 1 241.771 14.648 Z" fill="#00ffc3"/>
  <path d="M 200 200 L 242.741 14.870 A 190 190 0 0 1 238.530 13.948 Z" fill="#00ffc7"/>
  <path d="M 200 200 L 239.503 14.152 A 190 190 0 0 1 235.277 13.304 Z" fill="#00ffcb"/>
  <path d="M 200 200 L 236.254 13.491 A 190 190 0 0 1 232.013 12.716 Z" fill="#00ffd0"/>
  <path d="M 200 200 L 232.993 12.887 A 190 190 0 0 1 228.740 12.186 Z" fill="#00ffd4"/>
  <path d="M 200 200 L 229.723 12.339 A 190 190 0 0 1 225.457 11.713 Z" fill="#00ffd8"/>
  <path d="M 200 200 L 226.443 11.849 A 190 190 0 0 1 222.167 11.298 Z" fill="#00ffdd"/>
  <path d="M 200 200 L 223.155 11.416 A 190 190 0 0 1 218.871 10.939 Z" fill="#00ffe1"/>
  <path d="M 200 200 L 219.860 11.041 A 190 190 0 0 1 215.568 10.639 Z" fill="#00ffe5"/>
  <path d="M 200 200 L 216.560 10.723 A 190 190 0 0 1 212.261 10.396 Z" fill="#00ffe9"/>
  <path d="M 200 200 L 213.254 10.463 A 190 190 0 0 1 208.950 10.211 Z" fill="#00ffee"/>
  <path d="M 200 200 L 209.944 10.260 A 190 190 0 0 1 205.637 10.084 Z" fill="#00fff2"/>
  <path d="M 200 200 L 206.631 10.116 A 190 190 0 0 1 202.321 10.014 Z" fill="#00fff6"/>
  <path d="M 200 200 L 203.316 10.029 A 190 190 0 0 1 199.005 10.003 Z" fill="#00fffa"/>
  <path d="M 200 200 L 200.000 10.000 A 190 190 0 0 1 195.689 10.049 Z" fill="#00ffff"/>
  <path d="M 200 200 L 196.684 10.029 A 190 190 0 0 1 192.375 10.153 Z" fill="#00faff"/>
  <path d="M 200 200 L 193.369 10.116 A 190 190 0 0 1 189.063 10.315 Z" fill="#00f6ff"/>
  <path d="M 200 200 L 190.056 10.260 A 190 190 0 0 1 185.754 10.535 Z" fill="#00f2ff"/>
  <path d="M 200 200 L 186.746 10.463 A 190 190 0 0 1 182.450 10.812 Z" fill="#00eeff"/>
  <path d="M 200 200 L 183.440 10.723 A 190 190 0 0 1 179.150 11.147 Z" fill="#00e9ff"/>
  <path d="M 200 200 L 180.140 11.041 A 190 190 0 0 1 175.858 11.540 Z" fill="#00e5ff"/>
  <path d="M 200 200 L 176.845 11.416 A 190 190 0 0 1 172.572 11.990 Z" fill="#00e1ff"/>
  <path d="M 200 200 L 173.557 11.849 A 190 190 0 0 1 169.295 12.497 Z" fill="#00dcff"/>
  <path d="M 200 200 L 170.277 12.339 A 190 190 0 0 1 166.028 13.062 Z" fill="#00d8ff"/>
  <path d="M 200 200 L 167.007 12.887 A 190 190 0 0 1 162.770 13.683 Z" fill="#00d4ff"/>
  <path d="M 200 200 L 163.746 13.491 A 190 190 0 0 1 159.524 14.361 Z" fill="#00d0ff"/>
  <path d="M 200 200 L 160.497 14.152 A 190 190 0 0 1 156.291 15.096 Z" fill="#00cbff"/>
  <path d="M 200 200 L 157.259 14.870 A 190 190 0 0 1 153.070 15.887 Z" fill="#00c7ff"/>
  <path d="M 200 200 L 154.035 15.644 A 190 190 0 0 1 149.864 16.734 Z" fill="#00c3ff"/>
  <path d="M 200 200 L 150.824 16.474 A 190 190 0 0 1 146.673 17.637 Z" fill="#00bfff"/>
  <path d="M 200 200 L 147.629 17.360 A 190 190 0 0 1 143.499 18.595 Z" fill="#00bbff"/>
  <path d="M 200 200 L 144.449 18.302 A 190 190 0 0 1 140.341 19.609 Z" fill="#00b6ff"/>
  <path d="M 200 200 L 141.287 19.299 A 190 190 0 0 1 137.202 20.678 Z" fill="#00b2ff"/>
  <path d="M 200 200 L 138.142 20.351 A 190 190 0 0 1 134.082 21.801 Z" fill="#00aeff"/>
  <path d="M 200 200 L 135.016 21.458 A 190 190 0 0 1 130.982 22.979 Z" fill="#00a9ff"/>
  <path d="M 200 200 L 131.910 22.620 A 190 190 0 0 1 127.903 24.210 Z" fill="#00a5ff"/>
  <path d="M 200 200 L 128.825 23.835 A 190 190 0 0 1 124.846 25.495 Z" fill="#00a1ff"/>
  <path d="M 200 200 L 125.761 25.104 A 190 190 0 0 1 121.812 26.833 Z" fill="#009dff"/>
  <path d="M 200 200 L 122.720 26.426 A 190 190 0 0 1 118.802 28.224 Z" fill="#0098ff"/>
  <path d="M 200 200 L 119.703 27.802 A 190 190 0 0 1 115.816 29.668 Z" fill="#0094ff"/>
  <path d="M 200 200 L 116.709 29.229 A 190 190 0 0 1 112.857 31.163 Z" fill="#0090ff"/>
  <path d="M 200 200 L 113.742 30.709 A 190 190 0 0 1 109.923 32.709 Z" fill="#008cff"/>
  <path d="M 200 200 L 110.800 32.240 A 190 190 0 0 1 107.017 34.307 Z" fill="#0087ff"/>
  <path d="M 200 200 L 107.886 33.822 A 190 190 0 0 1 104.140 35.955 Z" fill="#0083ff"/>
  <path d="M 200 200 L 105.000 35.455 A 190 190 0 0 1 101.291 37.653 Z" fill="#007fff"/>
  <path d="M 200 200 L 102.143 37.138 A 190 190 0 0 1 98.473 39.400 Z" fill="#007bff"/>
  <path d="M 200 200 L 99.315 38.871 A 190 190 0 0 1 95.686 41.197 Z" fill="#0077ff"/>
  <path d="M 200 200 L 96.519 40.653 A 190 190 0 0 1 92.930 43.041 Z" fill="#0072ff"/>
  <path d="M 200 200 L 93.753 42.483 A 190 190 0 0 1 90.207 44.934 Z" fill="#006eff"/>
  <path d="M 200 200 L 91.020 44.361 A 190 190 0 0 1 87.517 46.874 Z" fill="#006aff"/>
  <path d="M 200 200 L 88.321 46.287 A 190 190 0 0 1 84.862 48.860 Z" fill="#0066ff"/>
  <path d="M 200 200 L 85.655 48.259 A 190 190 0 0 1 82.242 50.892 Z" fill="#0061ff"/>
  <path d="M 200 200 L 83.024 50.278 A 190 190 0 0 1 79.658 52.970 Z" fill="#005dff"/>
  <path d="M 200 200 L 80.429 52.342 A 190 190 0 0 1 77.110 55.093 Z" fill="#0059ff"/>
  <path d="M 200 200 L 77.870 54.452 A 190 190 0 0 1 74.600 57.260 Z" fill="#0054ff"/>
  <path d="M 200 200 L 75.349 56.605 A 190 190 0 0 1 72.128 59.470 Z" fill="#0050ff"/>
  <path d="M 200 200 L 72.865 58.802 A 190 190 0 0 1 69.695 61.723 Z" fill="#004cff"/>
  <path d="M 200 200 L 70.420 61.043 A 190 190 0 0 1 67.301 64.018 Z" fill="#0048ff"/>
  <path d="M 200 200 L 68.015 63.325 A 190 190 0 0 1 64.948 66.355 Z" fill="#0043ff"/>
  <path d="M 200 200 L 65.650 65.650 A 190 190 0 0 1 62.636 68.732 Z" fill="#003fff"/>
  <path d="M 200 200 L 63.325 68.015 A 190 190 0 0 1 60.366 71.150 Z" fill="#003bff"/>
  <path d="M 200 200 L 61.043 70.420 A 190 190 0 0 1 58.139 73.606 Z" fill="#0037ff"/>
  <path d="M 200 200 L 58.802 72.865 A 190 190 0 0 1 55.954 76.101 Z" fill="#0033ff"/>
  <path d="M 200 200 L 56.605 75.349 A 190 190 0 0 1 53.814 78.634 Z" fill="#002eff"/>
  <path d="M 200 200 L 54.452 77.870 A 190 190 0 0 1 51.718 81.204 Z" fill="#002aff"/>
  <path d="M 200 200 L 52.342 80.429 A 190 190 0 0 1 49.668 83.810 Z" fill="#0026ff"/>
  <path d="M 200 200 L 50.278 83.024 A 190 190 0 0 1 47.663 86.451 Z" fill="#0021ff"/>
  <path d="M 200 200 L 48.259 85.655 A 190 190 0 0 1 45.704 89.127 Z" fill="#001dff"/>
  <path d="M 200 200 L 46.287 88.321 A 190 190 0 0 1 43.793 91.837 Z" fill="#0019ff"/>
  <path d="M 200 200 L 44.361 91.020 A 190 190 0 0 1 41.929 94.580 Z" fill="#0015ff"/>
  <path d="M 200 200 L 42.483 93.753 A 190 190 0 0 1 40.113 97.354 Z" fill="#0010ff"/>
  <path d="M 200 200 L 40.653 96.519 A 190 190 0 0 1 38.346 100.160 Z" fill="#000cff"/>
  <path d="M 200 200 L 38.871 99.315 A 190 190 0 0 1 36.628 102.997 Z" fill="#0008ff"/>
  <path d="M 200 200 L 37.138 102.143 A 190 190 0 0 1 34.960 105.863 Z" fill="#0004ff"/>
  <path d="M 200 200 L 35.455 105.000 A 190 190 0 0 1 33.342 108.758 Z" fill="#0000ff"/>
  <path d="M 200 200 L 33.822 107.886 A 190 190 0 0 1 31.775 111.680 Z" fill="#0400ff"/>
  <path d="M 200 200 L 32.240 110.800 A 190 190 0 0 1 30.259 114.629 Z" fill="#0800ff"/>
  <path d="M 200 200 L 30.709 113.742 A 190 190 0 0 1 28.795 117.605 Z" fill="#0c00ff"/>
  <path d="M 200 200 L 29.229 116.709 A 190 190 0 0 1 27.383 120.605 Z" fill="#1000ff"/>
  <path d="M 200 200 L 27.802 119.703 A 190 190 0 0 1 26.024 123.630 Z" fill="#1500ff"/>
  <path d="M 200 200 L 26.426 122.720 A 190 190 0 0 1 24.718 126.678 Z" fill="#1900ff"/>
  <path d="M 200 200 L 25.104 125.761 A 190 190 0 0 1 23.465 129.748 Z" fill="#1d00ff"/>
  <path d="M 200 200 L 23.835 128.825 A 190 190 0 0 1 22.266 132.840 Z" fill="#2100ff"/>
  <path d="M 200 200 L 22.620 131.910 A 190 190 0 0 1 21.121 135.952 Z" fill="#2600ff"/>
  <path d="M 200 200 L 21.458 135.016 A 190 190 0 0 1 20.030 139.084 Z" fill="#2a00ff"/>
  <path d="M 200 200 L 20.351 138.142 A 190 190 0 0 1 18.994 142.234 Z" fill="#2e00ff"/>
  <path d="M 200 200 L 19.299 141.287 A 190 190 0 0 1 18.014 145.402 Z" fill="#3200ff"/>
  <path d="M 200 200 L 18.302 144.449 A 190 190 0 0 1 17.089 148.586 Z" fill="#3700ff"/>
  <path d="M 200 200 L 17.360 147.629 A 190 190 0 0 1 16.219 151.786 Z" fill="#3b00ff"/>
  <path d="M 200 200 L 16.474 150.824 A 190 190 0 0 1 15.406 155.001 Z" fill="#3f00ff"/>
  <path d="M 200 200 L 15.644 154.035 A 190 190 0 0 1 14.648 158.229 Z" fill="#4300ff"/>
  <path d="M 200 200 L 14.870 157.259 A 190 190 0 0 1 13.948 161.470 Z" fill="#4800ff"/>
  <path d="M 200 200 L 14.152 160.497 A 190 190 0 0 1 13.304 164.723 Z" fill="#4c00ff"/>
  <path d="M 200 200 L 13.491 163.746 A 190 190 0 0 1 12.716 167.987 Z" fill="#5000ff"/>
  <path d="M 200 200 L 12.887 167.007 A 190 190 0 0 1 12.186 171.260 Z" fill="#5400ff"/>
  <path d="M 200 200 L 12.339 170.277 A 190 190 0 0 1 11.713 174.543 Z" fill="#5900ff"/>
  <path d="M 200 200 L 11.849 173.557 A 190 190 0 0 1 11.298 177.833 Z" fill="#5d00ff"/>
  <path d="M 200 200 L 11.416 176.845 A 190 190 0 0 1 10.939 181.129 Z" fill="#6100ff"/>
  <path d="M 200 200 L 11.041 180.140 A 190 190 0 0 1 10.639 184.432 Z" fill="#6500ff"/>
  <path d="M 200 200 L 10.723 183.440 A 190 190 0 0 1 10.396 187.739 Z" fill="#6a00ff"/>
  <path d="M 200 200 L 10.463 186.746 A 190 190 0 0 1 10.211 191.050 Z" fill="#6e00ff"/>
  <path d="M 200 200 L 10.260 190.056 A 190 190 0 0 1 10.084 194.363 Z" fill="#7200ff"/>
  <path d="M 200 200 L 10.116 193.369 A 190 190 0 0 1 10.014 197.679 Z" fill="#7700ff"/>
  <path d="M 200 200 L 10.029 196.684 A 190 190 0 0 1 10.003 200.995 Z" fill="#7b00ff"/>
  <path d="M 200 200 L 10.000 200.000 A 190 190 0 0 1 10.049 204.311 Z" fill="#7f00ff"/>
  <path d="M 200 200 L 10.029 203.316 A 190 190 0 0 1 10.153 207.625 Z" fill="#8300ff"/>
  <path d="M 200 200 L 10.116 206.631 A 190 190 0 0 1 10.315 210.937 Z" fill="#8700ff"/>
  <path d="M 200 200 L 10.260 209.944 A 190 190 0 0 1 10.535 214.246 Z" fill="#8c00ff"/>
  <path d="M 200 200 L 10.463 213.254 A 190 190 0 0 1 10.812 217.550 Z" fill="#9000ff"/>
  <path d="M 200 200 L 10.723 216.560 A 190 190 0 0 1 11.147 220.850 Z" fill="#9400ff"/>
  <path d="M 200 200 L 11.041 219.860 A 190 190 0 0 1 11.540 224.142 Z" fill="#9900ff"/>
  <path d="M 200 200 L 11.416 223.155 A 190 190 0 0 1 11.990 227.428 Z" fill="#9d00ff"/>
  <path d="M 200 200 L 11.849 226.443 A 190 190 0 0 1 12.497 230.705 Z" fill="#a100ff"/>
  <path d="M 200 200 L 12.339 229.723 A 190 190 0 0 1 13.062 233.972 Z" fill="#a500ff"/>
  <path d="M 200 200 L 12.887 232.993 A 190 190 0 0 1 13.683 237.230 Z" fill="#aa00ff"/>
  <path d="M 200 200 L 13.491 236.254 A 190 190 0 0 1 14.361 240.476 Z" fill="#ae00ff"/>
  <path d="M 200 200 L 14.152 239.503 A 190 190 0 0 1 15.096 243.709 Z" fill="#b200ff"/>
  <path d="M 200 200 L 14.870 242.741 A 190 190 0 0 1 15.887 246.930 Z" fill="#b600ff"/>
  <path d="M 200 200 L 15.644 245.965 A 190 190 0 0 1 16.734 250.136 Z" fill="#bb00ff"/>
  <path d="M 200 200 L 16.474 249.176 A 190 190 0 0 1 17.637 253.327 Z" fill="#bf00ff"/>
  <path d="M 200 200 L 17.360 252.371 A 190 190 0 0 1 18.595 256.501 Z" fill="#c300ff"/>
  <path d="M 200 200 L 18.302 255.551 A 190 190 0 0 1 19.609 259.659 Z" fill="#c700ff"/>
  <path d="M 200 200 L 19.299 258.713 A 190 190 0 0 1 20.678 262.798 Z" fill="#cc00ff"/>
  <path d="M 200 200 L 20.351 261.858 A 190 190 0 0 1 21.801 265.918 Z" fill="#d000ff"/>
  <path d="M 200 200 L 21.458 264.984 A 190 190 0 0 1 22.979 269.018 Z" fill="#d400ff"/>
  <path d="M 200 200 L 22.620 268.090 A 190 190 0 0 1 24.210 272.097 Z" fill="#d800ff"/>
  <path d="M 200 200 L 23.835 271.175 A 190 190 0 0 1 25.495 275.154 Z" fill="#dd00ff"/>
  <path d="M 200 200 L 25.104 274.239 A 190 190 0 0 1 26.833 278.188 Z" fill="#e100ff"/>
  <path d="M 200 200 L 26.426 277.280 A 190 190 0 0 1 28.224 281.198 Z" fill="#e500ff"/>
  <path d="M 200 200 L 27.802 280.297 A 190 190 0 0 1 29.668 284.184 Z" fill="#e900ff"/>
  <path d="M 200 200 L 29.229 283.291 A 190 190 0 0 1 31.163 287.143 Z" fill="#ee00ff"/>
  <path d="M 200 200 L 30.709 286.258 A 190 190 0 0 1 32.709 290.077 Z" fill="#f200ff"/>
  <path d="M 200 200 L 32.240 289.200 A 190 190 0 0 1 34.307 292.983 Z" fill="#f600ff"/>
  <path d="M 200 200 L 33.822 292.114 A 190 190 0 0 1 35.955 295.860 Z" fill="#fa00ff"/>
  <path d="M 200 200 L 35.455 295.000 A 190 190 0 0 1 37.653 298.709 Z" fill="#ff00ff"/>
  <path d="M 200 200 L 37.138 297.857 A 190 190 0 0 1 39.400 301.527 Z" fill="#ff00fa"/>
  <path d="M 200 200 L 38.871 300.685 A 190 190 0 0 1 41.197 304.314 Z" fill="#ff00f6"/>
  <path d="M 200 200 L 40.653 303.481 A 190 190 0 0 1 43.041 307.070 Z" fill="#ff00f2"/>
  <path d="M 200 200 L 42.483 306.247 A 190 190 0 0 1 44.934 309.793 Z" fill="#ff00ee"/>
  <path d="M 200 200 L 44.361 308.980 A 190 190 0 0 1 46.874 312.483 Z" fill="#ff00e9"/>
  <path d="M 200 200 L 46.287 311.679 A 190 190 0 0 1 48.860 315.138 Z" fill="#ff00e5"/>
  <path d="M 200 200 L 48.259 314.345 A 190 190 0 0 1 50.892 317.758 Z" fill="#ff00e1"/>
  <path d="M 200 200 L 50.278 316.976 A 190 190 0 0 1 52.970 320.342 Z" fill="#ff00dd"/>
  <path d="M 200 200 L 52.342 319.571 A 190 190 0 0 1 55.093 322.890 Z" fill="#ff00d8"/>
  <path d="M 200 200 L 54.452 322.130 A 190 190 0 0 1 57.260 325.400 Z" fill="#ff00d4"/>
  <path d="M 200 200 L 56.605 324.651 A 190 190 0 0 1 59.470 327.872 Z" fill="#ff00d0"/>
  <path d="M 200 200 L 58.802 327.135 A 190 190 0 0 1 61.723 330.305 Z" fill="#ff00cb"/>
  <path d="M 200 200 L 61.043 329.580 A 190 190 0 0 1 64.018 332.699 Z" fill="#ff00c7"/>
  <path d="M 200 200 L 63.325 331.985 A 190 190 0 0 1 66.355 335.052 Z" fill="#ff00c3"/>
  <path d="M 200 200 L 65.650 334.350 A 190 190 0 0 1 68.732 337.364 Z" fill="#ff00bf"/>
  <path d="M 200 200 L 68.015 336.675 A 190 190 0 0 1 71.150 339.634 Z" fill="#ff00bb"/>
  <path d="M 200 200 L 70.420 338.957 A 190 190 0 0 1 73.606 341.861 Z" fill="#ff00b6"/>
  <path d="M 200 200 L 72.865 341.198 A 190 190 0 0 1 76.101 344.046 Z" fill="#ff00b2"/>
  <path d="M 200 200 L 75.349 343.395 A 190 190 0 0 1 78.634 346.186 Z" fill="#ff00ae"/>
  <path d="M 200 200 L 77.870 345.548 A 190 190 0 0 1 81.204 348.282 Z" fill="#ff00aa"/>
  <path d="M 200 200 L 80.429 347.658 A 190 190 0 0 1 83.810 350.332 Z" fill="#ff00a5"/>
  <path d="M 200 200 L 83.024 349.722 A 190 190 0 0 1 86.451 352.337 Z" fill="#ff00a1"/>
  <path d="M 200 200 L 85.655 351.741 A 190 190 0 0 1 89.127 354.296 Z" fill="#ff009d"/>
  <path d="M 200 200 L 88.321 353.713 A 190 190 0 0 1 91.837 356.207 Z" fill="#ff0098"/>
  <path d="M 200 200 L 91.020 355.639 A 190 190 0 0 1 94.580 358.071 Z" fill="#ff0094"/>
  <path d="M 200 200 L 93.753 357.517 A 190 190 0 0 1 97.354 359.887 Z" fill="#ff0090"/>
  <path d="M 200 200 L 96.519 359.347 A 190 190 0 0 1 100.160 361.654 Z" fill="#ff008c"/>
  <path d="M 200 200 L 99.315 361.129 A 190 190 0 0 1 102.997 363.372 Z" fill="#ff0087"/>
  <path d="M 200 200 L 102.143 362.862 A 190 190 0 0 1 105.863 365.040 Z" fill="#ff0083"/>
  <path d="M 200 200 L 105.000 364.545 A 190 190 0 0 1 108.758 366.658 Z" fill="#ff007f"/>
  <path d="M 200 200 L 107.886 366.178 A 190 190 0 0 1 111.680 368.225 Z" fill="#ff007b"/>
  <path d="M 200 200 L 110.800 367.760 A 190 190 0 0 1 114.629 369.741 Z" fill="#ff0077"/>
  <path d="M 200 200 L 113.742 369.291 A 190 190 0 0 1 117.605 371.205 Z" fill="#ff0072"/>
  <path d="M 200 200 L 116.709 370.771 A 190 190 0 0 1 120.605 372.617 Z" fill="#ff006e"/>
  <path d="M 200 200 L 119.703 372.198 A 190 190 0 0 1 123.630 373.976 Z" fill="#ff006a"/>
  <path d="M 200 200 L 122.720 373.574 A 190 190 0 0 1 126.678 375.282 Z" fill="#ff0066"/>
  <path d="M 200 200 L 125.761 374.896 A 190 190 0 0 1 129.748 376.535 Z" fill="#ff0061"/>
  <path d="M 200 200 L 128.825 376.165 A 190 190 0 0 1 132.840 377.734 Z" fill="#ff005d"/>
  <path d="M 200 200 L 131.910 377.380 A 190 190 0 0 1 135.952 378.879 Z" fill="#ff0059"/>
  <path d="M 200 200 L 135.016 378.542 A 190 190 0 0 1 139.084 379.970 Z" fill="#ff0055"/>
  <path d="M 200 200 L 138.142 379.649 A 190 190 0 0 1 142.234 381.006 Z" fill="#ff0050"/>
  <path d="M 200 200 L 141.287 380.701 A 190 190 0 0 1 145.402 381.986 Z" fill="#ff004c"/>
  <path d="M 200 200 L 144.449 381.698 A 190 190 0 0 1 148.586 382.911 Z" fill="#ff0048"/>
  <path d="M 200 200 L 147.629 382.640 A 190 190 0 0 1 151.786 383.781 Z" fill="#ff0043"/>
  <path d="M 200 200 L 150.824 383.526 A 190 190 0 0 1 155.001 384.594 Z" fill="#ff003f"/>
  <path d="M 200 200 L 154.035 384.356 A 190 190 0 0 1 158.229 385.352 Z" fill="#ff003b"/>
  <path d="M 200 200 L 157.259 385.130 A 190 190 0 0 1 161.470 386.052 Z" fill="#ff0037"/>
  <path d="M 200 200 L 160.497 385.848 A 190 190 0 0 1 164.723 386.696 Z" fill="#ff0033"/>
  <path d="M 200 200 L 163.746 386.509 A 190 190 0 0 1 167.987 387.284 Z" fill="#ff002e"/>
  <path d="M 200 200 L 167.007 387.113 A 190 190 0 0 1 171.260 387.814 Z" fill="#ff002a"/>
  <path d="M 200 200 L 170.277 387.661 A 190 190 0 0 1 174.543 388.287 Z" fill="#ff0026"/>
  <path d="M 200 200 L 173.557 388.151 A 190 190 0 0 1 177.833 388.702 Z" fill="#ff0022"/>
  <path d="M 200 200 L 176.845 388.584 A 190 190 0 0 1 181.129 389.061 Z" fill="#ff001d"/>
  <path d="M 200 200 L 180.140 388.959 A 190 190 0 0 1 184.432 389.361 Z" fill="#ff0019"/>
  <path d="M 200 200 L 183.440 389.277 A 190 190 0 0 1 187.739 389.604 Z" fill="#ff0015"/>
  <path d="M 200 200 L 186.746 389.537 A 190 190 0 0 1 191.050 389.789 Z" fill="#ff0010"/>
  <path d="M 200 200 L 190.056 389.740 A 190 190 0 0 1 194.363 389.916 Z" fill="#ff000c"/>
  <path d="M 200 200 L 193.369 389.884 A 190 190 0 0 1 197.679 389.986 Z" fill="#ff0008"/>
  <path d="M 200 200 L 196.684 389.971 A 190 190 0 0 1 200.995 389.997 Z" fill="#ff0004"/>
</svg>
